<?xml version="1.0" encoding="utf-8"?>
<!-- Generator: Adobe Illustrator 19.0.0, SVG Export Plug-In . SVG Version: 6.00 Build 0)  -->
<svg version="1.1" xmlns="http://www.w3.org/2000/svg" xmlns:xlink="http://www.w3.org/1999/xlink" x="0px" y="0px"
	 viewBox="0 0 500 500" style="enable-background:new 0 0 500 500;" xml:space="preserve">
<style type="text/css">
	.st0{fill:#FFFFFF;}
	.st1{fill:#B5DFEA;}
	.st2{opacity:0.55;fill:#90CEDD;}
	.st3{fill:#79C9E8;}
	.st4{fill:#D7F0F9;}
	.st5{fill:#0582C1;}
	.st6{fill:#FFBF4D;}
	.st7{fill:#00668E;}
	.st8{fill:#05556D;}
	.st9{fill:#F98D3D;}
	.st10{fill:#ED701B;}
	.st11{fill:none;}
	.st12{fill:#EFAA3A;}
	.st13{opacity:0.29;fill:#F98D2B;}
	.st14{fill:#49B4D6;}
	.st15{fill:#FF9F50;}
	.st16{fill:#F77E2D;}
	.st17{opacity:0.55;fill:url(#SVGID_1_);}
</style>
<g id="BACKGROUND">
	<rect class="st0" width="500" height="500"/>
</g>
<g id="OBJECTS">
	<g>
		<g>
			<path class="st1" d="M453.1,393.6c7,0,12.6-5.6,12.7-12.5c0.5-34.6,3.3-85.7-61.9-99.9c-52.8-11.4-21.5-105.3-163.7-99.2
				c-102.1,4.4-75,90.4-154.3,97.6c-52.8,4.8-53.3,71.6-51.2,102.2c0.4,6.7,6,11.9,12.7,11.9H453.1z"/>
			<g>
				<path class="st2" d="M403.9,281.2c-52.8-11.4-21.5-105.3-163.7-99.2c-24.3,1-41.2,6.7-54.1,14.8c4.3-0.6,8.9-1,13.8-1.2
					c142.2-6.1,110.9,87.8,163.7,99.2c64.5,14,62.5,64.1,61.9,98.8h27.5c7,0,12.6-5.6,12.7-12.5
					C466.3,346.4,469.1,295.3,403.9,281.2z"/>
			</g>
			<g>
				<rect x="177.8" class="st3" width="2.2" height="163.8"/>
				<rect x="338.7" class="st3" width="2.2" height="189"/>
				<g>
					<path class="st4" d="M340.8,177.9l-166.9-19.5c-7.1-0.8-13.6,4.3-14.4,11.4l-12.5,106.8c-0.8,7.1,4.3,13.6,11.4,14.4
						l166.9,19.5c7.1,0.8,13.6-4.3,14.4-11.4l12.5-106.8C353,185.2,347.9,178.8,340.8,177.9z"/>
					<path class="st5" d="M351,202.9l1.2-10.6c0.8-7.1-4.3-13.6-11.4-14.4l-166.9-19.5c-7.1-0.8-13.6,4.3-14.4,11.4l-1.2,10.6
						L351,202.9z"/>
					<g>
						<path class="st3" d="M185.2,245.1l21.2-37.3c1.4-2.4,4-3.7,6.7-3.4l0,0c3.8,0.4,6.4,3.8,6,7.6l-4.4,37.7l0.2,0
							c2.6,0.3,4.5,2.7,4.2,5.3l0,0c-0.3,2.6-2.7,4.5-5.3,4.2l-0.2,0l-0.8,6.9c-0.3,2.8-2.9,4.8-5.7,4.5l0,0
							c-2.8-0.3-4.8-2.9-4.5-5.7l0.8-6.9l-15.2-1.8c-2.6-0.3-4.5-2.7-4.2-5.3l0.4-3.5C184.5,246.6,184.8,245.8,185.2,245.1z
							 M204.6,247.9l2.7-23.4c0-0.2-0.2-0.2-0.3-0.1l-12.5,22.1c-0.2,0.4,0,0.9,0.5,0.9l8.9,1C204.2,248.5,204.5,248.2,204.6,247.9z
							"/>
						<path class="st3" d="M278.6,256l21.2-37.3c1.4-2.4,4-3.7,6.7-3.4l0,0c3.8,0.4,6.4,3.8,6,7.6l-4.4,37.7l0.2,0
							c2.6,0.3,4.5,2.7,4.2,5.3l0,0c-0.3,2.6-2.7,4.5-5.3,4.2l-0.2,0l-0.8,6.9c-0.3,2.8-2.9,4.8-5.7,4.5l0,0
							c-2.8-0.3-4.8-2.9-4.5-5.7l0.8-6.9l-15.2-1.8c-2.6-0.3-4.5-2.7-4.2-5.3l0.4-3.5C277.9,257.5,278.2,256.7,278.6,256z
							 M298,258.8l2.7-23.4c0-0.2-0.2-0.2-0.3-0.1l-12.5,22.1c-0.2,0.4,0,0.9,0.5,0.9l8.9,1C297.6,259.4,297.9,259.1,298,258.8z"/>
						<path class="st3" d="M236.6,223.1c1.2-10.5,7.5-15.9,17.6-14.7c10.2,1.2,15,7.9,13.8,18.4l-4,34.2
							c-1.2,10.5-7.5,15.9-17.6,14.7c-10.2-1.2-15-7.9-13.8-18.4L236.6,223.1z M242.9,259.3c-0.5,4.7,1.3,6.7,4.6,7.1
							c3.3,0.4,5.6-1.2,6.1-5.9l4.2-35.6c0.5-4.7-1.3-6.7-4.6-7.1c-3.3-0.4-5.6,1.2-6.1,5.9L242.9,259.3z"/>
					</g>
					<g>
						<circle class="st0" cx="174.4" cy="172.8" r="3.5"/>
						<circle class="st3" cx="191.1" cy="174.8" r="3.5"/>
						<circle class="st6" cx="208.5" cy="176.8" r="3.5"/>
					</g>
				</g>
			</g>
			<g>
				<path class="st7" d="M144.8,298.8c0,0-2.3,10-1.9,20.2c0.3,9.2-0.8,69.3-0.8,69.3h7.3c0,0,10.5-47.1,10.9-50.8
					c0.4-3.7,5.7-40.9,5.7-40.9L144.8,298.8z"/>
				<path class="st5" d="M149.7,296c0,0,1.7,12.9,4.6,22c2.9,9.1,17,70.3,17,70.3h7.3c0,0-1.4-47.1-1.9-50.8
					c-0.5-3.7-4.2-40.9-4.2-40.9L149.7,296z"/>
				<path class="st5" d="M171.9,388.3v5.1h14c0.8,0,1.1-1,0.4-1.5c-2-1.4-5.3-3.2-8.4-3.7H171.9z"/>
				<path class="st5" d="M142.5,388.3v5.1h14c0.8,0,1.1-1,0.4-1.5c-2-1.4-5.3-3.2-8.4-3.7H142.5z"/>
				<g>
					<path class="st7" d="M167.8,236.3c0,0,4.8-7.3-0.7-8c-4.2-0.5-6,0.7-6,0.7s-4.9-0.5-7.6,1.8c-1.8,1.6-8.6,13.9,2.3,18.4
						c10.9,4.5,8.6-6.9,8.6-6.9L167.8,236.3z"/>
					<path class="st8" d="M167.1,228.2c-4.2-0.5-6,0.7-6,0.7s-4.9-0.5-7.6,1.8c-1.8,1.6-8.6,13.9,2.3,18.4c5.1,2.1,7.3,0.7,8.2-1.4
						c-10.3,2.9-11.4-9.5-9.7-13.1c1.7-3.6,5.9-1.9,5.9-1.9c1.6-4.1,6.9-3.6,9.1-3.3C168.9,228.8,168.2,228.4,167.1,228.2z"/>
					<path class="st9" d="M161,239.8c0,0-1.4-1.4-2.5,0c-1.1,1.4-0.4,4.6,1.4,4.8c0,0-0.5,4.6-4.1,4.5v3.7h8.4V250
						c0,0,5.2-2.1,5-6.4c-0.2-4.3-1.4-7.3-1.4-7.3S164.9,239.5,161,239.8z"/>
					<path class="st10" d="M162.3,251.2c0.8,0.3,0.7,0.9,0.7,1.7h1.2V250c0,0-2,0.6-5-1C159.2,248.9,160.9,250.6,162.3,251.2z"/>
				</g>
				<path class="st9" d="M164,233c0,0-4.3-1.7-4.8-0.4c-0.3,0.8,0.5,1.6,1.7,2.3l-1,0.2c-0.2,0-0.3,0.3-0.1,0.5
					c0.3,0.2,1.1,0.4,2.7,0.4L164,233z"/>
				<g>
					<polygon class="st11" points="138.2,280.1 144,298.8 143.9,297.9 144,298.8 146,271.5 					"/>
					<path class="st6" d="M195,243.9c-8.3-6.1-30.9-11-30.9-11l-1.9,3.4c0,0,20.5,8,19.2,9.1c-0.8,0.7-10.8,5.3-14.2,6.8
						c-0.7,0.3-1.5,0.5-2.3,0.5l-10.4-0.1c0,0-7.5-0.9-13.4,5.9c-5.3,6.1-14.2,20.1-14.2,20.1l15.1,22.2l1.7,2.5l0,0l0,0.2
						c0,0,0.5,0.1,1.5,0.1c4.9,0.4,20.4,1.7,28.6-0.1l0.2-0.1l-0.4-36.4c13.1-10.4,19.4-18.4,21.7-21
						C195.8,245.4,195.7,244.4,195,243.9z M144.3,293.5l-1.5-3.2l-4.7-10.3l7.8-8.7l-1.4,19.1L144.3,293.5z"/>
				</g>
				<polygon class="st12" points="142.9,290.3 144.3,293.5 143.6,303.3 143.6,303.3 141.9,300.8 				"/>
				<path class="st13" d="M170.1,265.8c-1.4,1-1,10-1.4,15.7c-0.6,9.4-1.1,17.6-0.7,22.9c2.1-0.1,4.1-0.4,5.8-0.7l0.2-0.1l-0.4-36.4
					c13.1-10.4,19.4-18.4,21.7-21c0.6-0.7,0.5-1.7-0.2-2.2C195,243.9,184.6,255.2,170.1,265.8z"/>
				<path class="st7" d="M176.7,337.5c-0.4-2.7-2.4-22.8-3.5-33.8l-5.3,0.6c0,0,7.7,63.3,8.2,84.1h2.4
					C178.6,388.3,177.2,341.2,176.7,337.5z"/>
				<g>
					<path class="st5" d="M142.9,240.9l-1.6-2.9c0.8-1.5,1.3-3.2,1.3-5c0-6-4.8-10.8-10.8-10.8c-6,0-10.8,4.8-10.8,10.8
						c0,6,4.8,10.8,10.8,10.8c3,0,5.7-1.2,7.7-3.2L142.9,240.9z"/>
					<g>
						<path class="st0" d="M126.2,232h0.4v1.5c0,0.5,0.1,0.7,0.5,0.7c0.3,0,0.4-0.1,0.7-0.4V232h0.4v2.5h-0.3l0-0.4h0
							c-0.2,0.3-0.5,0.4-0.8,0.4c-0.5,0-0.8-0.3-0.8-1V232z"/>
						<path class="st0" d="M129.9,234.7v0.8h-0.4V232h0.3l0,0.3h0c0.2-0.2,0.5-0.3,0.8-0.3c0.6,0,1,0.5,1,1.3c0,0.8-0.5,1.3-1.1,1.3
							c-0.2,0-0.5-0.1-0.7-0.3L129.9,234.7z M130.5,234.2c0.4,0,0.7-0.4,0.7-1c0-0.5-0.2-0.9-0.6-0.9c-0.2,0-0.4,0.1-0.7,0.3v1.3
							C130.1,234.1,130.3,234.2,130.5,234.2z"/>
						<path class="st0" d="M132.7,233.9c0.2,0.2,0.4,0.3,0.7,0.3c0.3,0,0.5-0.2,0.5-0.4c0-0.3-0.3-0.4-0.6-0.5
							c-0.3-0.1-0.7-0.3-0.7-0.7c0-0.4,0.3-0.7,0.8-0.7c0.3,0,0.6,0.1,0.8,0.3l-0.2,0.3c-0.2-0.1-0.3-0.2-0.6-0.2
							c-0.3,0-0.5,0.2-0.5,0.4c0,0.2,0.3,0.3,0.5,0.4c0.4,0.1,0.7,0.3,0.7,0.7c0,0.4-0.3,0.7-0.9,0.7c-0.3,0-0.7-0.1-0.9-0.3
							L132.7,233.9z"/>
						<path class="st0" d="M135.6,233.9c0.2,0,0.3,0.1,0.3,0.3c0,0.2-0.1,0.3-0.3,0.3c-0.2,0-0.3-0.1-0.3-0.3
							C135.3,234,135.4,233.9,135.6,233.9z"/>
						<path class="st0" d="M137.4,233.9c0.2,0,0.3,0.1,0.3,0.3c0,0.2-0.1,0.3-0.3,0.3c-0.2,0-0.3-0.1-0.3-0.3
							C137.1,234,137.2,233.9,137.4,233.9z"/>
					</g>
				</g>
			</g>
			<g>
				<g>
					<g>
						<path class="st3" d="M101.5,370.5c0,0-2.3-2.1-0.7-10.1c1.5-8,5.4-15.7,3.5-24.4c-1.9-8.7-16.7-30.7-16.8-32.1
							c0-1.5-4.6,25.5,3.1,36.2c7.7,10.6,8.6,14.3,8.3,19.9c-0.3,5.6,0.1,10.1,0.9,11.4L101.5,370.5z"/>
						<path class="st14" d="M100.1,354.4c-0.9,3.6-1.4,12.6,0,14.7c0.1,0.2,0.3,0.1,0.6-0.3c-0.4-1.5-0.7-4.1,0.1-8.4
							c1.5-8,5.4-15.7,3.5-24.4c-1.9-8.7-16.7-30.7-16.8-32.1c0,0,2.2,18.3,9.8,30.9C102.7,343.7,101,350.8,100.1,354.4z"/>
					</g>
					<g>
						<path class="st3" d="M104.3,369.9c0,0-4.4-10.9,3-20.3c7.4-9.4,19.2-21.5,19.4-26.3c0,0,3,22.8-6.6,29.2
							c-9.6,6.4-16.4,7.5-14.7,17.4L104.3,369.9z"/>
						<path class="st14" d="M114.6,347.9c-10.7,7.8-11.6,16.8-9.9,21c0.1,0.3,0.4,0.5,0.7,0.6c-1.4-9.6,5.2-10.7,14.7-17
							c9.6-6.4,6.6-29.2,6.6-29.2S125.3,340.1,114.6,347.9z"/>
					</g>
					<g>
						<path class="st3" d="M97.1,370.2c0,0,1.4-5.8,0.7-12c-0.7-6.2-7.2-9.7-13.3-16.3c-3.1-3.4-4-21.3-2.1-22.9
							c0,0-10.7,13-9.1,22.5c1.7,9.5,19.1,15.7,20.8,20.3c1.6,4.6,1.5,8.5,1.5,8.5L97.1,370.2z"/>
						<g>
							<path class="st14" d="M78.7,324.1c-3.5,9.6,0.1,21.2,11.9,28.4c8.7,5.3,5.9,16.4,5.9,16.4l1.4-4.4c0.1-1.9,0.1-4.1-0.1-6.3
								c-0.7-6.2-7.2-9.7-13.3-16.3c-3-3.3-4-20-2.3-22.7C81.6,319.9,80.2,321.7,78.7,324.1z"/>
							<path class="st14" d="M82.1,319.2c0.1-0.2,0.2-0.2,0.2-0.2C82.2,319.1,82.2,319.1,82.1,319.2z"/>
						</g>
					</g>
					<g>
						<path class="st3" d="M106.5,369.5c0,0,2.5-9.3,8.7-10.6c6.2-1.3,13.3-10.4,13.7-12.2C129,346.7,127.9,364,106.5,369.5z"/>
						<path class="st14" d="M114.9,362c-3.8,1.9-5.4,4.5-6,6.8c19.1-6.1,20-22.1,20-22.1c-0.1,0.4-0.4,1-1,1.8
							C126.1,351.7,121.6,358.6,114.9,362z"/>
					</g>
				</g>
				<path class="st6" d="M119.9,366H87.4l3.9,24.3c0.3,1.8,1.9,3.2,3.7,3.2h17.3c1.9,0,3.5-1.4,3.7-3.2L119.9,366z"/>
				<polygon class="st15" points="119.3,370 119.9,366 87.4,366 88.1,370 				"/>
				<path class="st15" d="M112.1,366l-3.9,24.3c-0.3,1.8-1.9,3.2-3.7,3.2h7.9c1.9,0,3.5-1.4,3.7-3.2l3.9-24.3H112.1z"/>
			</g>
			<g>
				<rect x="197.2" y="322.7" class="st6" width="146.9" height="29.9"/>
				<rect x="197.2" y="322.7" class="st13" width="146.9" height="7.2"/>
				<polygon class="st16" points="210,322.7 223.4,322.7 219.8,330 206.4,330 				"/>
				<polygon class="st16" points="240.2,322.7 253.6,322.7 250,330 236.6,330 				"/>
				<polygon class="st16" points="270.4,322.7 283.8,322.7 280.2,330 266.8,330 				"/>
				<polygon class="st16" points="300.6,322.7 314,322.7 310.4,330 297,330 				"/>
				<polygon class="st16" points="344.1,322.7 344.1,322.9 340.6,330 327.2,330 330.8,322.7 				"/>
				<rect x="215.5" y="352.6" class="st3" width="10.4" height="40.8"/>
				<rect x="223.5" y="352.6" class="st14" width="2.4" height="40.8"/>
				<rect x="316.2" y="352.6" class="st3" width="10.4" height="40.8"/>
				<rect x="323.5" y="352.6" class="st14" width="3.1" height="40.8"/>
				<rect x="215.5" y="352.6" class="st14" width="10.4" height="5.1"/>
				<rect x="316.2" y="352.6" class="st14" width="10.4" height="5.1"/>
				<rect x="215.5" y="318.1" class="st3" width="10.4" height="4.6"/>
				<rect x="223.5" y="318.1" class="st14" width="2.4" height="4.6"/>
				<rect x="316.2" y="318.1" class="st3" width="10.4" height="4.6"/>
				<rect x="323.5" y="318.1" class="st14" width="3.1" height="4.6"/>
				<rect x="215.5" y="322.1" class="st14" width="10.4" height="0.6"/>
				<rect x="316.2" y="322.1" class="st14" width="10.4" height="0.6"/>
				<g>
					<g>
						<polygon class="st5" points="223.4,322.7 208.6,352.6 197.2,352.6 197.2,348.5 210,322.7 						"/>
						<polygon class="st5" points="240.2,322.7 225.4,352.6 238.8,352.6 253.6,322.7 						"/>
						<polygon class="st5" points="283.8,322.7 269,352.6 255.6,352.6 270.4,322.7 						"/>
						<polygon class="st5" points="314,322.7 299.2,352.6 285.8,352.6 300.6,322.7 						"/>
						<polygon class="st5" points="330.8,322.7 316,352.6 329.4,352.6 344.1,322.9 						"/>
					</g>
				</g>
				<g>
					<g>
						<polygon class="st7" points="223.4,322.7 219.8,330 206.4,330 210,322.7 						"/>
						<polygon class="st7" points="253.6,322.7 250,330 236.6,330 240.2,322.7 						"/>
						<polygon class="st7" points="283.8,322.7 280.2,330 266.8,330 270.4,322.7 						"/>
						<polygon class="st7" points="314,322.7 310.4,330 297,330 300.6,322.7 						"/>
						<polygon class="st7" points="344.1,322.9 340.6,330 327.2,330 330.8,322.7 						"/>
					</g>
				</g>
				<linearGradient id="SVGID_1_" gradientUnits="userSpaceOnUse" x1="271.4144" y1="361.3425" x2="271.4144" y2="337.2882">
					<stop  offset="0" style="stop-color:#FFFFFF"/>
					<stop  offset="1" style="stop-color:#FFFFFF;stop-opacity:0"/>
				</linearGradient>
				<rect x="201.3" y="335.7" class="st17" width="140.2" height="14.9"/>
				<circle class="st6" cx="220.4" cy="311.6" r="9.2"/>
				<circle class="st5" cx="220.4" cy="311.6" r="4.2"/>
				<circle class="st6" cx="321.4" cy="311.6" r="9.2"/>
				<circle class="st5" cx="321.4" cy="311.6" r="4.2"/>
			</g>
			<g>
				<path class="st6" d="M399.7,390.3h-46.8l7.2-17.3v0l2.9-7l0.8-1.9l1.3-3.1l0.3-0.6l2.9-7l0.5-1.3l5.1-12.4c0.9-2.2,4.1-2.2,5,0
					l5.1,12.4l0.5,1.3l2.9,7l0.3,0.6l1.3,3.1l0.8,1.9l2.9,7v0L399.7,390.3z"/>
				<polygon class="st13" points="356,382.8 352.9,390.3 399.7,390.3 396.6,382.8 				"/>
				<rect x="349.2" y="385.8" class="st3" width="53.6" height="7.6"/>
				<rect x="391.2" y="385.8" class="st14" width="11.6" height="7.6"/>
				<g>
					<path class="st13" d="M397.9,385.8h-6.6l-5.3-12.9v0l-2.9-7l-0.8-1.9l-1.3-3.1l-0.3-0.6l-2.9-7l-0.5-1.3l-4.3-10.4l0.8-2
						c0.9-2.2,4.1-2.2,5,0l5.1,12.4l0.5,1.3l2.9,7l0.3,0.6l1.3,3.1l0.8,1.9l2.9,7v0L397.9,385.8z"/>
					<g>
						<polygon class="st5" points="387.3,360.2 365.3,360.2 368.2,353.2 384.4,353.2 						"/>
						<polygon class="st5" points="392.6,372.9 392.6,372.9 360.1,372.9 360.1,372.9 363,365.9 389.7,365.9 						"/>
						<polygon class="st7" points="387.3,360.2 380.7,360.2 377.8,353.2 384.4,353.2 						"/>
						<polygon class="st7" points="392.6,372.9 392.6,372.9 385.9,372.9 385.9,372.9 383.1,365.9 389.7,365.9 						"/>
					</g>
				</g>
			</g>
			<g>
				<path class="st4" d="M101.6,220.2c3.5,0,6.5-2.5,7-6c0.1-0.6,0.1-1.3,0.1-1.9c0-7.7-6.2-14-14-14c-0.3,0-0.6,0-0.9,0
					c-0.6-7.6-7-13.6-14.8-13.6c-8.2,0-14.8,6.6-14.8,14.8c0,0.4,0,0.7,0,1.1c-2.3-1.3-5-2-7.9-1.9c-7.4,0.3-13.6,6.3-14.1,13.7
					c0,0.1,0,0.1,0,0.2c-0.2,4,3,7.4,7.1,7.4H101.6z"/>
				<path class="st4" d="M434.7,231.2c11,0,11.6-16.6,0.6-17.1c-0.3,0-0.6,0-0.9,0c-2,0-3.9,0.3-5.6,0.9c-1.5-9-9.3-15.9-18.7-15.9
					c-9.6,0-17.6,7.2-18.8,16.5c-2.3-1.1-4.8-1.7-7.5-1.7c-1.5,0-3,0.2-4.4,0.6c-9.7,2.5-7.6,16.8,2.3,16.8H434.7z"/>
				<path class="st4" d="M302.1,149.3c11,0,11.6-16.6,0.6-17.1c-0.3,0-0.6,0-0.9,0c-2,0-3.9,0.3-5.6,0.9c-1.5-9-9.3-15.8-18.7-15.8
					c-9.6,0-17.5,7.2-18.8,16.4c-2.3-1.1-4.8-1.7-7.5-1.7c-1.5,0-3,0.2-4.4,0.6c-9.6,2.5-7.6,16.8,2.3,16.8H302.1z"/>
				<circle class="st6" cx="126.4" cy="153.6" r="26.5"/>
				<path class="st15" d="M126.7,127.1c7.2,4.7,11.9,12.9,11.9,22.1c0,14.6-11.8,26.5-26.5,26.5c-0.1,0-0.1,0-0.2,0
					c4.2,2.7,9.1,4.3,14.5,4.3c14.6,0,26.5-11.8,26.5-26.5C152.9,139,141.2,127.2,126.7,127.1z"/>
			</g>
		</g>
	</g>
</g>
<g id="DESIGNED_BY_FREEPIK">
</g>
</svg>
